<svg height="512" viewBox="0 0 64 64" width="512" xmlns="http://www.w3.org/2000/svg"><g id="Layer_7" data-name="Layer 7"><path d="m56 8v6a2.006 2.006 0 0 1 -2 2h-44a2.006 2.006 0 0 1 -2-2v-6z" fill="#ddb200"/><path d="m53 16v41a4 4 0 0 1 -4 4h-34a4 4 0 0 1 -4-4v-41z" fill="#ffcd00"/><path d="m11 16h42v2h-42z" fill="#ebbf00"/><g fill="#f1f2f2"><path d="m32 55a3 3 0 0 0 3-3v-27a3 3 0 0 0 -6 0v27a3 3 0 0 0 3 3z"/><path d="m20 55a3 3 0 0 0 3-3v-27a3 3 0 0 0 -6 0v27a3 3 0 0 0 3 3z"/><path d="m44 55a3 3 0 0 0 3-3v-27a3 3 0 0 0 -6 0v27a3 3 0 0 0 3 3z"/></g><path d="m41 5a2 2 0 0 0 -2-2h-14a2 2 0 0 0 -2 2v3h18z" fill="#6d6e71"/><g fill="#231f20"><path d="m56 7h-14v-2a3.009 3.009 0 0 0 -3-3h-14a3.009 3.009 0 0 0 -3 3v2h-14a1 1 0 0 0 -1 1v6a3.009 3.009 0 0 0 3 3v40a5 5 0 0 0 5 5h34a5 5 0 0 0 5-5v-40a3.009 3.009 0 0 0 3-3v-6a1 1 0 0 0 -1-1zm-32-2a1 1 0 0 1 1-1h14a1 1 0 0 1 1 1v2h-16zm28 52a3.009 3.009 0 0 1 -3 3h-34a3.009 3.009 0 0 1 -3-3v-40h40zm3-43a1 1 0 0 1 -1 1h-44a1 1 0 0 1 -1-1v-5h46z"/><path d="m32 56a4 4 0 0 0 4-4v-27a4 4 0 0 0 -8 0v27a4 4 0 0 0 4 4zm-2-31a2 2 0 0 1 4 0v27a2 2 0 0 1 -4 0z"/><path d="m20 56a4 4 0 0 0 4-4v-27a4 4 0 0 0 -8 0v27a4 4 0 0 0 4 4zm-2-31a2 2 0 0 1 4 0v27a2 2 0 0 1 -4 0z"/><path d="m44 56a4 4 0 0 0 4-4v-27a4 4 0 0 0 -8 0v27a4 4 0 0 0 4 4zm-2-31a2 2 0 0 1 4 0v27a2 2 0 0 1 -4 0z"/></g></g></svg>